<svg xmlns="http://www.w3.org/2000/svg" width="100%" height="auto" viewBox="179 136 667 711" version="1.1">
	<rect x="179" y="136" width="667" height="711" fill="#b785f2"/>
	<path d="M 474 136.686 C 452.825 136.883, 383.750 137.372, 320.500 137.772 L 205.500 138.500 199.810 141.294 C 192.448 144.910, 184.837 153.195, 181.935 160.753 L 179.729 166.500 179.614 252.500 L 179.500 338.500 231 339.075 C 287.478 339.706, 286.766 339.635, 306 346.554 C 323.906 352.996, 336.509 360.722, 356.740 377.661 C 377.123 394.727, 391.487 402.882, 407.813 406.657 C 411.491 407.507, 415.075 408.373, 415.777 408.581 C 416.712 408.857, 416.380 410.290, 414.540 413.922 C 411.434 420.051, 407.445 433.593, 406.487 441.260 C 406.092 444.417, 405.429 447, 405.013 447 C 404.597 447, 400.036 445.925, 394.878 444.611 C 375.783 439.748, 358.064 430.417, 340.159 415.796 C 311.919 392.736, 303.314 387.401, 286.496 382.527 C 272.920 378.593, 262.046 377.898, 219 378.212 L 179.500 378.500 179.500 404.500 L 179.500 430.500 219.500 430.500 C 258.581 430.500, 259.672 430.446, 267 428.169 C 280.316 424.031, 289.918 416.795, 296.723 405.769 C 299.124 401.879, 300.814 400.099, 301.761 400.462 C 304.866 401.653, 317.879 411.315, 324.444 417.303 L 331.388 423.637 328.995 427.568 C 318.863 444.217, 303.773 456.690, 285 463.931 C 270.335 469.587, 265.993 470, 221.162 470 L 180.239 470 179.621 480.250 C 179.281 485.887, 179.055 497.813, 179.119 506.750 L 179.235 523 229.934 523 C 260.942 523, 282.937 522.592, 286.566 521.949 C 294.800 520.491, 304.320 517.311, 312 513.455 C 318.141 510.371, 322.435 507.304, 343.172 491.186 C 353.616 483.069, 364.475 476.731, 375.575 472.274 C 384.252 468.790, 396.289 465.410, 402.049 464.839 L 405.477 464.500 406.251 471.403 C 407.200 479.874, 409.406 488.579, 412.588 496.409 C 413.913 499.669, 414.885 502.396, 414.748 502.467 C 414.612 502.539, 410.115 503.566, 404.756 504.748 C 394.532 507.004, 381.476 512.541, 373.327 518.078 C 370.672 519.881, 364.568 524.634, 359.762 528.640 C 343 542.611, 327.926 551.383, 310.844 557.106 C 292.581 563.224, 292.247 563.253, 233.750 563.715 L 180 564.139 179.837 569.819 C 179.071 596.552, 179.321 813.766, 180.124 819.065 C 182.057 831.826, 189.400 840.156, 202.240 844.152 C 207.346 845.741, 211.669 846, 233.089 846 L 258 846 258.004 796.750 C 258.007 749.667, 258.093 747.359, 259.960 744.299 C 264.133 737.453, 242.222 738, 512.302 738 L 756.704 738 760.102 740.270 C 767.166 744.989, 767.075 744.274, 766.966 794.500 C 766.913 819.250, 766.898 840.989, 766.934 842.809 L 767 846.118 794.250 845.809 C 821.232 845.503, 821.555 845.474, 827.067 842.889 C 833.725 839.767, 839.503 834.151, 842.389 828 C 844.499 823.503, 844.500 823.413, 844.765 693.826 L 845.029 564.152 791.265 563.734 C 741.475 563.348, 736.822 563.164, 728.336 561.254 C 704.553 555.901, 685.704 546.313, 665 529.037 C 647.559 514.483, 634.704 507.620, 618.750 504.346 C 613.938 503.358, 610 502.238, 610 501.858 C 610 501.477, 610.848 499.187, 611.885 496.767 C 613.851 492.181, 617.486 476.850, 618.498 468.878 L 619.084 464.256 626.792 465.700 C 647.401 469.560, 669.657 480.658, 688.147 496.295 C 703.673 509.424, 714.014 515.447, 729 520.087 C 736.390 522.375, 737.294 522.414, 790.750 522.753 L 845 523.096 845 496.548 L 845 470 806.572 470 C 784.467 470, 764.840 469.540, 760.364 468.918 C 744.869 466.763, 729.020 460.377, 717.299 451.566 C 709.503 445.705, 699.324 434.688, 695.813 428.311 L 693.126 423.430 701.503 416.056 C 710.376 408.245, 721.636 400, 723.429 400 C 724.020 400, 725.628 402.132, 727.002 404.738 C 732.323 414.828, 743.920 423.824, 757.371 428.293 C 763.038 430.176, 766.574 430.361, 804.250 430.743 L 845 431.157 845 404.499 L 845 377.841 799.750 378.266 C 758.844 378.652, 753.636 378.887, 745.500 380.723 C 725.604 385.212, 712.562 392.119, 696.326 406.764 C 677.575 423.679, 671.120 428.389, 656.836 435.583 C 648.591 439.735, 631.726 445.469, 624.629 446.533 C 619.133 447.357, 618.041 446.511, 618.015 441.410 C 617.995 437.228, 614.542 423.906, 611.491 416.239 C 608.391 408.448, 608.397 408, 611.602 408 C 615.117 408, 630.576 402.748, 637.812 399.095 C 646.421 394.749, 655.673 388.163, 669.354 376.642 C 676.036 371.016, 684.314 364.503, 687.751 362.169 C 702.364 352.245, 723.837 343.700, 741.926 340.610 C 749.672 339.287, 759.699 339, 798.176 339 L 845 339 845 251.538 C 845 165.760, 844.960 163.969, 842.946 158.586 C 840.120 151.033, 833.337 143.784, 825.473 139.912 L 819.076 136.763 665.788 136.545 C 581.480 136.425, 495.175 136.489, 474 136.686 M 488 234.031 C 447.055 239.643, 407.409 256.334, 376 281.183 C 366.391 288.785, 352.569 302.294, 343.958 312.500 C 337.294 320.399, 324 339.457, 324 341.113 C 324 341.582, 326.265 343.114, 329.033 344.517 C 336.192 348.145, 344.721 353.668, 350.290 358.284 C 352.925 360.467, 355.227 362.084, 355.405 361.877 C 355.584 361.669, 356.974 359.506, 358.493 357.068 C 383.832 316.407, 427.088 286.895, 476.942 276.253 C 488.403 273.807, 491.466 273.569, 512 273.536 C 537.858 273.495, 548.112 275.031, 569.500 282.150 C 609.044 295.314, 644.660 322.538, 665.537 355.559 C 667.602 358.827, 669.416 361.652, 669.568 361.838 C 669.719 362.024, 672.773 359.930, 676.354 357.185 C 682.583 352.411, 698.303 343, 700.049 343 C 702.645 343, 701.358 339.891, 694.809 330.345 C 688.375 320.965, 684.327 315.973, 669.909 299.637 C 664.496 293.505, 644.394 277.034, 633.487 269.796 C 608.392 253.143, 579.645 241.377, 550.566 235.858 C 541.866 234.206, 534.690 233.691, 517 233.449 C 504.625 233.279, 491.575 233.540, 488 234.031 M 504.862 360.159 C 478.680 362.155, 452.748 376.350, 436.845 397.390 C 408.952 434.295, 409.691 483.694, 438.679 519.924 C 451.283 535.677, 468.969 547.045, 489.527 552.608 C 495.096 554.115, 499.822 554.483, 513 554.436 C 527.985 554.382, 530.308 554.129, 538.297 551.679 C 564.903 543.521, 586.814 524.611, 598.538 499.691 C 606.640 482.468, 609.986 459.613, 607.061 441.480 C 601.932 409.684, 582.114 382.889, 553.414 368.947 C 538.136 361.525, 522.963 358.778, 504.862 360.159 M 503 398.694 C 495.431 399.969, 485.754 403.926, 479.008 408.503 C 466.541 416.964, 458.943 428.082, 454.945 443.713 C 447.451 473.015, 464.458 503.676, 494 514.123 C 503.565 517.505, 520.518 517.477, 530.950 514.060 C 550.407 507.689, 564.742 492.060, 570.005 471.480 C 575.037 451.806, 569.454 431.478, 554.897 416.462 C 543.279 404.479, 527.783 397.865, 512 398.154 C 508.425 398.219, 504.375 398.462, 503 398.694 M 310.500 462.534 C 305.266 466.330, 290.173 473.904, 283.750 475.957 C 280.433 477.017, 278.549 479, 280.859 479 C 281.332 479, 283.887 480.909, 286.537 483.242 C 292.225 488.249, 298.694 497.853, 299.588 502.620 C 299.937 504.479, 300.744 506, 301.382 506 C 305.122 506, 330.240 488.143, 331.643 484.488 C 332.455 482.373, 325.431 469.854, 320.192 464.080 L 315.500 458.907 310.500 462.534 M 703.484 464.750 C 698.434 471.139, 691.709 483.720, 692.586 485.140 C 694.785 488.697, 720.339 506, 723.394 506 C 723.642 506, 724.380 504.313, 725.033 502.250 C 727.618 494.096, 734.194 485.054, 741.277 479.918 L 745.054 477.179 739.777 475.475 C 732.885 473.249, 722.016 467.765, 714.839 462.890 C 711.688 460.751, 708.867 459, 708.569 459 C 708.272 459, 705.984 461.587, 703.484 464.750 M 348 552.082 C 342.648 555.737, 324.247 565, 322.339 565 C 319.966 565, 320.887 567.300, 327.464 577.803 C 361.648 632.387, 417.629 669.429, 481.403 679.664 C 493.895 681.669, 527.902 681.948, 539.500 680.140 C 597.983 671.024, 645.179 644.271, 681.308 599.758 C 687.969 591.551, 704.020 567.743, 703.988 566.118 C 703.981 565.778, 700.548 564.183, 696.360 562.574 C 692.171 560.965, 684.928 557.252, 680.264 554.324 C 675.600 551.396, 671.447 549, 671.034 549 C 670.622 549, 668.683 551.587, 666.726 554.750 C 631.233 612.106, 564.454 646.628, 499.704 641.095 C 442.574 636.213, 392.602 606.486, 359.989 557.984 C 356.667 553.043, 353.623 549.002, 353.224 549.004 C 352.826 549.007, 350.475 550.391, 348 552.082 M 292.388 766.980 C 291.227 767.449, 289.314 769.057, 288.138 770.552 C 286.043 773.215, 286 774.001, 286 809.635 L 286 846 512 846 L 738 846 738 810.047 C 738 786.326, 737.631 773.284, 736.915 771.712 C 736.318 770.402, 734.561 768.581, 733.010 767.665 C 730.403 766.125, 713.869 766.005, 512.346 766.063 C 392.531 766.098, 293.550 766.511, 292.388 766.980 M 313 805.521 L 313 821.041 333.250 820.771 L 353.500 820.500 353.776 805.250 L 354.052 790 333.526 790 L 313 790 313 805.521 M 375 805.500 L 375 821 394 821 L 413 821 413 805.500 L 413 790 394 790 L 375 790 375 805.500 M 434.439 791.298 C 434.165 792.012, 434.067 798.875, 434.220 806.548 L 434.500 820.500 453.250 820.772 L 472 821.044 472 805.522 L 472 790 453.469 790 C 439.199 790, 434.823 790.299, 434.439 791.298 M 494 805.500 L 494 821 512.500 821 L 531 821 531 805.500 L 531 790 512.500 790 L 494 790 494 805.500 M 552.439 791.298 C 552.165 792.012, 552.067 798.875, 552.220 806.548 L 552.500 820.500 571.250 820.772 L 590 821.044 590 805.522 L 590 790 571.469 790 C 557.199 790, 552.823 790.299, 552.439 791.298 M 611.439 791.298 C 611.165 792.012, 611.067 798.875, 611.220 806.548 L 611.500 820.500 630.500 820.500 L 649.500 820.500 649.776 805.250 L 650.052 790 630.995 790 C 616.294 790, 611.823 790.297, 611.439 791.298 M 671 805.500 L 671 821 691.500 821 L 712 821 712 805.500 L 712 790 691.500 790 L 671 790 671 805.500" stroke="none" fill="black" fill-rule="evenodd"/>
</svg>
