<svg xmlns="http://www.w3.org/2000/svg" width="1280" height="640" viewBox="0 0 1280 640">
  <title>rom-weaver — Make more of your ROMs</title>
  <desc>A cartridge W logo beside the rom-weaver name, with tools to patch, convert, and inspect ROMs in your browser or CLI.</desc>
  <defs>
    <pattern id="weave" width="64" height="64" patternUnits="userSpaceOnUse">
      <path d="M0 16h64M0 48h64M16 0v64M48 0v64" fill="none" stroke="#f6ecda" stroke-width="1" opacity=".035"/>
    </pattern>
  </defs>
  <rect width="1280" height="640" fill="#f4f0e8"/>
  <rect x="824" width="456" height="640" fill="#20282d"/>
  <rect x="824" width="456" height="640" fill="url(#weave)"/>
  <g font-family="Arial, Helvetica, sans-serif">
    <text x="72" y="126" fill="#20282d" font-size="68" font-weight="700" letter-spacing="-2.4">rom<tspan fill="#77766d" font-weight="400">-</tspan><tspan fill="#b03a0a">weaver</tspan></text>
    <text x="75" y="174" fill="#62645f" font-size="15" font-weight="600" letter-spacing="2.2">THE ROM &amp; DISC IMAGE TOOLKIT</text>
    <g fill="#20282d" font-size="76" font-weight="700" letter-spacing="-2.8">
      <text x="72" y="294">Make more</text>
      <text x="72" y="380">of your ROMs.</text>
    </g>
    <text x="76" y="442" fill="#505851" font-size="27">Patch. Convert. Inspect.</text>
    <path d="M76 500H748" stroke="#c9cbc2"/>
    <text x="76" y="551" fill="#20282d" font-size="23" font-weight="600">In your browser or CLI.</text>
    <text x="76" y="584" fill="#62645f" font-size="19">Your files stay on your device.</text>
    <text x="1052" y="552" fill="#f6ecda" font-size="24" font-weight="600" text-anchor="middle" letter-spacing="-.3">rom-weaver.com</text>
  </g>
  <svg x="852" y="114" width="400" height="400" viewBox="0 0 64 64" fill="none" aria-hidden="true">
    <path fill="#f6ecda" d="M14 4h8v6h20V4h8a6 6 0 0 1 6 6v44a6 6 0 0 1-6 6h-5.5v-9h-5v9h-5v-9h-5v9h-5v-9h-5v9h-5.5a6 6 0 0 1-6-6V10a6 6 0 0 1 6-6Z"/>
    <path class="brand-mark-accent" fill="#d9690f" d="M16 18l7 25h7l2-6 2 6h7l7-25h-8l-3 14-5-10-5 10-3-14Z"/>
  </svg>
</svg>
